# xmcd
# 
# Track frame offsets:
#     150
#     18601
#     32897
#     44211
#     58178
#     70057
#     83544
#     97875
#     113316
#     125757
#     137448
#     151982
#     166049
#     180864
#     195351
#     209688
# 
# Disc length: 2985
# 
# Revision: 4
# Processed by: cddbd v1.5.2PL0 Copyright (c) Steve Scherf et al.
# Submitted via: fre:ac v1.0.31
# 
DISCID=cd0ba710
DTITLE=Ella Fitzgerald - Holiday In Harlem
DYEAR=2000
DGENRE=Jazz
TTITLE0=Hallelujah
TTITLE1=If that's what you're thinking
TTITLE2=When I get low I get high
TTITLE3=If you ever change your mind
TTITLE4=Sing me a swing song
TTITLE5=Little white lies
TTITLE6=Coochie coochie coo
TTITLE7=I got a guy
TTITLE8=Deedle-de-dum
TTITLE9=Baby won't you please go home
TTITLE10=Holiday in Harlem
TTITLE11=So long
TTITLE12=Dispy doodle
TTITLE13=Five O'clock whistle
TTITLE14=Loisville K-Y
TTITLE15=This time it's real
EXTD=
EXTT0=
EXTT1=
EXTT2=
EXTT3=
EXTT4=
EXTT5=
EXTT6=
EXTT7=
EXTT8=
EXTT9=
EXTT10=
EXTT11=
EXTT12=
EXTT13=
EXTT14=
EXTT15=
PLAYORDER=
